<?xml version="1.0" encoding="utf-8"?>
<!-- Generator: Adobe Illustrator 23.0.1, SVG Export Plug-In . SVG Version: 6.00 Build 0)  -->
<svg version="1.1" id="Layer_1" xmlns="http://www.w3.org/2000/svg" xmlns:xlink="http://www.w3.org/1999/xlink" x="0px" y="0px"
	 viewBox="0 0 1366 768" style="enable-background:new 0 0 1366 768;" xml:space="preserve">
<g>
	<image style="overflow:visible;" width="36" height="33" xlink:href="7E032296.jpg"  transform="matrix(0.24 0 0 0.24 678 381)">
	</image>
	<g>
		<defs>
			<path id="SVGID_1_" d="M686.1,387.4C686.1,387.4,686.1,387.4,686.1,387.4C686.1,387.4,686,387.4,686.1,387.4
				c-0.2,0.3-0.4,0.6-0.7,0.9c-0.1,0.1-0.3,0.1-0.5,0c-0.1-0.1-0.1-0.3,0-0.4c0.2-0.1,0.3-0.3,0.4-0.5l-0.5-0.3
				c-0.2-0.1-0.2-0.3-0.1-0.4c0.1-0.2,0.3-0.2,0.4-0.1l0.5,0.3c0.2-0.4,0.3-0.8,0.3-1.2h-0.6c-0.2,0-0.3-0.1-0.3-0.3
				c0-0.2,0.1-0.3,0.3-0.3h0.6c-0.1-1.1-0.7-2-1.6-2.6l-0.3,0.5c-0.1,0.1-0.2,0.2-0.3,0.2c-0.1,0-0.1,0-0.2,0
				c-0.2-0.1-0.2-0.3-0.1-0.4l0.3-0.5c-0.4-0.2-0.8-0.3-1.2-0.3v0.6c0,0.2-0.1,0.3-0.3,0.3s-0.3-0.1-0.3-0.3v-0.6
				c-0.4,0-0.9,0.2-1.2,0.3l0.3,0.5c0.1,0.2,0,0.3-0.1,0.4c-0.1,0-0.1,0-0.2,0c-0.1,0-0.2-0.1-0.3-0.2l-0.3-0.5
				c-0.4,0.2-0.7,0.5-0.9,0.9l0.5,0.3c0.2,0.1,0.2,0.3,0.1,0.4c-0.1,0.1-0.2,0.2-0.3,0.2c-0.1,0-0.1,0-0.2,0l-0.5-0.3
				c-0.2,0.4-0.3,0.8-0.3,1.2l0.6,0c0.2,0,0.3,0.1,0.3,0.3c0,0.2-0.1,0.3-0.3,0.3c0,0,0,0,0,0l-0.6,0c0,0.4,0.2,0.8,0.3,1.2l0.5-0.3
				c0.2-0.1,0.3,0,0.4,0.1c0.1,0.2,0,0.3-0.1,0.4l-0.5,0.3c0.1,0.2,0.3,0.3,0.4,0.5c0.1,0.1,0.1,0.3,0,0.4c-0.1,0.1-0.1,0.1-0.2,0.1
				c-0.1,0-0.2,0-0.2-0.1c-0.3-0.3-0.5-0.5-0.7-0.9c0,0,0,0,0,0c0,0,0,0,0,0c-0.4-0.6-0.6-1.4-0.6-2.1c0,0,0,0,0,0c0,0,0,0,0,0
				c0-0.8,0.2-1.5,0.6-2.1c0,0,0,0,0,0c0,0,0,0,0,0c0.4-0.6,0.9-1.1,1.5-1.5c0,0,0,0,0,0c0,0,0,0,0,0c0.6-0.4,1.4-0.6,2.1-0.6
				c0.8,0,1.5,0.2,2.1,0.6c0,0,0,0,0,0c0,0,0,0,0,0c1.3,0.7,2.1,2.1,2.1,3.7C686.6,386,686.4,386.7,686.1,387.4L686.1,387.4z
				 M683,385.2C683,385.2,683,385.2,683,385.2c0,0.4-0.3,0.7-0.6,0.7c-0.4,0-0.6-0.3-0.6-0.6c0-0.3,0.3-0.6,0.6-0.6
				c0.1,0,0.3,0,0.4,0.1l2.4-1.1L683,385.2L683,385.2z M682.2,385c-0.1,0.1-0.2,0.2-0.2,0.3c0,0.2,0.1,0.3,0.3,0.3
				c0.1,0,0.1,0,0.2,0L682.2,385L682.2,385z M683.9,388.9h-3.2c-0.2,0-0.3-0.1-0.3-0.3V388c0-0.2,0.1-0.3,0.3-0.3h3.2
				c0.2,0,0.3,0.1,0.3,0.3v0.6C684.2,388.8,684.1,388.9,683.9,388.9L683.9,388.9z"/>
		</defs>
		<clipPath id="SVGID_2_">
			<use xlink:href="#SVGID_1_"  style="overflow:visible;"/>
		</clipPath>
		<g style="clip-path:url(#SVGID_2_);">
			<image style="overflow:visible;" width="36" height="33" xlink:href="7E03229A.jpg"  transform="matrix(0.24 0 0 0.24 678 381)">
			</image>
		</g>
	</g>
</g>
</svg>
